ffmpeg started on 2025-06-06 at 20:33:42
Report written to "D:\Convert\FFMetrics\reports\ssim_report-6.txt"
Log level: 32
Command line:
ffmpeg -hide_banner -nostdin -i "G:\\\xc0\xed\xe8\xec\xe5\\\xce\xed\xe3\xee\xe8\xed\xe3\xe8\\!_36_\xce\xf1\xe5\xed\xfc_2024\\DreamCast\\\xd2\xe5\xf2\xf0\xe0\xe4\xfc \xe4\xf0\xf3\xe6\xe1\xfb \xcd\xe0\xf6\xf3\xec\xfd [\xd2\xc2-7]\\[DC] Natsume Yuujinchou Shichi - 03_Telegram_HEVC.mkv" -i "G:\\\xc0\xed\xe8\xec\xe5\\\xce\xed\xe3\xee\xe8\xed\xe3\xe8\\!_36_\xce\xf1\xe5\xed\xfc_2024\\DreamCast\\\xd2\xe5\xf2\xf0\xe0\xe4\xfc \xe4\xf0\xf3\xe6\xe1\xfb \xcd\xe0\xf6\xf3\xec\xfd [\xd2\xc2-7]\\[DC] Natsume Yuujinchou Shichi - 03_Telegram.mp4" -lavfi "[0:v]settb=AVTB,setpts=PTS-STARTPTS,format=pix_fmts=yuv420p10,fps=24000/1001,scale=1920:1080:flags=bicubic[main];[1:v]settb=AVTB,setpts=PTS-STARTPTS,format=pix_fmts=yuv420p,fps=24000/1001,scale=1920:1080:flags=bicubic[ref];[main][ref]ssim=eof_action=endall:stats_file='D\\:/Convert/FFMetrics/logs/ssim_logfile-6.txt'" -f null -
Input #0, matroska,webm, from 'G:\Аниме\Онгоинги\!_36_Осень_2024\DreamCast\Тетрадь дружбы Нацумэ [ТВ-7]\[DC] Natsume Yuujinchou Shichi - 03_Telegram_HEVC.mkv':
  Metadata:
    COMPATIBLE_BRANDS: isomiso2avc1mp41
    MAJOR_BRAND     : isom
    MINOR_VERSION   : 512
    ENCODER         : Lavf61.7.100
  Duration: 00:23:58.21, start: -0.021000, bitrate: 803 kb/s
  Stream #0:0: Video: hevc (Main 10), yuv420p10le(tv, bt709, progressive), 1920x1080 [SAR 1:1 DAR 16:9], 23.98 fps, 23.98 tbr, 1k tbn (default)
      Metadata:
        HANDLER_NAME    : VideoHandler
        VENDOR_ID       : [0][0][0][0]
        ENCODER         : Lavc61.19.100 libx265
        BPS             : 607200
        DURATION        : 00:23:56.518708333
        NUMBER_OF_FRAMES: 34442
        NUMBER_OF_BYTES : 109031802
        _STATISTICS_WRITING_APP: mkvpropedit v66.0.0 ('Josie') 64-bit
        _STATISTICS_WRITING_DATE_UTC: 2025-06-04 14:36:12
        _STATISTICS_TAGS: BPS DURATION NUMBER_OF_FRAMES NUMBER_OF_BYTES
  Stream #0:1: Audio: aac (LC), 48000 Hz, stereo, fltp (default)
      Metadata:
        HANDLER_NAME    : SoundHandler
        VENDOR_ID       : [0][0][0][0]
        ENCODER         : Lavc61.19.100 aac
        BPS             : 192921
        DURATION        : 00:23:58.208000000
        NUMBER_OF_FRAMES: 67417
        NUMBER_OF_BYTES : 34682686
        _STATISTICS_WRITING_APP: mkvpropedit v66.0.0 ('Josie') 64-bit
        _STATISTICS_WRITING_DATE_UTC: 2025-06-04 14:36:12
        _STATISTICS_TAGS: BPS DURATION NUMBER_OF_FRAMES NUMBER_OF_BYTES
Input #1, mov,mp4,m4a,3gp,3g2,mj2, from 'G:\Аниме\Онгоинги\!_36_Осень_2024\DreamCast\Тетрадь дружбы Нацумэ [ТВ-7]\[DC] Natsume Yuujinchou Shichi - 03_Telegram.mp4':
  Metadata:
    major_brand     : isom
    minor_version   : 512
    compatible_brands: isomiso2avc1mp41
    encoder         : Lavf60.16.100
  Duration: 00:23:58.15, start: 0.000000, bitrate: 3490 kb/s
  Stream #1:0[0x1](und): Video: h264 (High) (avc1 / 0x31637661), yuv420p(tv, bt709, progressive), 1920x1080 [SAR 1:1 DAR 16:9], 3346 kb/s, 23.98 fps, 23.98 tbr, 24k tbn (default)
      Metadata:
        handler_name    : VideoHandler
        vendor_id       : [0][0][0][0]
        encoder         : Lavc60.31.102 h264_qsv
  Stream #1:1[0x2](und): Audio: aac (HE-AACv2) (mp4a / 0x6134706D), 48000 Hz, stereo, fltp, 144 kb/s (default)
      Metadata:
        handler_name    : SoundHandler
        vendor_id       : [0][0][0][0]
Stream mapping:
  Stream #0:0 (hevc) -> settb:default
  Stream #1:0 (h264) -> settb:default
  ssim:default -> Stream #0:0 (wrapped_avframe)
  Stream #0:1 -> #0:1 (aac (native) -> pcm_s16le (native))
Output #0, null, to 'pipe:':
  Metadata:
    COMPATIBLE_BRANDS: isomiso2avc1mp41
    MAJOR_BRAND     : isom
    MINOR_VERSION   : 512
    encoder         : Lavf61.7.100
  Stream #0:0: Video: wrapped_avframe, yuv420p10le(tv, bt709, progressive), 1920x1080 [SAR 1:1 DAR 16:9], q=2-31, 200 kb/s, 23.98 fps, 23.98 tbn
      Metadata:
        encoder         : Lavc61.19.100 wrapped_avframe
  Stream #0:1: Audio: pcm_s16le, 48000 Hz, stereo, s16, 1536 kb/s (default)
      Metadata:
        HANDLER_NAME    : SoundHandler
        VENDOR_ID       : [0][0][0][0]
        _STATISTICS_TAGS: BPS DURATION NUMBER_OF_FRAMES NUMBER_OF_BYTES
        BPS             : 192921
        DURATION        : 00:23:58.208000000
        NUMBER_OF_FRAMES: 67417
        NUMBER_OF_BYTES : 34682686
        _STATISTICS_WRITING_APP: mkvpropedit v66.0.0 ('Josie') 64-bit
        _STATISTICS_WRITING_DATE_UTC: 2025-06-04 14:36:12
        encoder         : Lavc61.19.100 pcm_s16le
frame=  177 fps=0.0 q=-0.0 size=N/A time=00:00:07.38 bitrate=N/A speed=14.5x    frame=  342 fps=332 q=-0.0 size=N/A time=00:00:14.26 bitrate=N/A speed=13.8x    frame=  538 fps=349 q=-0.0 size=N/A time=00:00:22.43 bitrate=N/A speed=14.6x    frame=  754 fps=368 q=-0.0 size=N/A time=00:00:31.44 bitrate=N/A speed=15.3x    frame=  957 fps=371 q=-0.0 size=N/A time=00:00:39.91 bitrate=N/A speed=15.5x    frame= 1175 fps=380 q=-0.0 size=N/A time=00:00:49.00 bitrate=N/A speed=15.9x    frame= 1375 fps=381 q=-0.0 size=N/A time=00:00:57.34 bitrate=N/A speed=15.9x    frame= 1591 fps=386 q=-0.0 size=N/A time=00:01:06.35 bitrate=N/A speed=16.1x    frame= 1787 fps=385 q=-0.0 size=N/A time=00:01:14.53 bitrate=N/A speed=16.1x    frame= 1962 fps=381 q=-0.0 size=N/A time=00:01:21.83 bitrate=N/A speed=15.9x    frame= 2177 fps=384 q=-0.0 size=N/A time=00:01:30.79 bitrate=N/A speed=  16x    frame= 2394 fps=387 q=-0.0 size=N/A time=00:01:39.84 bitrate=N/A speed=16.1x    frame= 2662 fps=397 q=-0.0 size=N/A time=00:01:51.02 bitrate=N/A speed=16.6x    frame= 2894 fps=401 q=-0.0 size=N/A time=00:02:00.70 bitrate=N/A speed=16.7x    frame= 3116 fps=403 q=-0.0 size=N/A time=00:02:09.96 bitrate=N/A speed=16.8x    frame= 3340 fps=405 q=-0.0 size=N/A time=00:02:19.30 bitrate=N/A speed=16.9x    frame= 3580 fps=408 q=-0.0 size=N/A time=00:02:29.31 bitrate=N/A speed=  17x    frame= 3853 fps=415 q=-0.0 size=N/A time=00:02:40.70 bitrate=N/A speed=17.3x    frame= 4121 fps=421 q=-0.0 size=N/A time=00:02:51.88 bitrate=N/A speed=17.6x    frame= 4406 fps=427 q=-0.0 size=N/A time=00:03:03.76 bitrate=N/A speed=17.8x    frame= 4678 fps=432 q=-0.0 size=N/A time=00:03:15.11 bitrate=N/A speed=  18x    frame= 4944 fps=436 q=-0.0 size=N/A time=00:03:26.20 bitrate=N/A speed=18.2x    frame= 5207 fps=439 q=-0.0 size=N/A time=00:03:37.17 bitrate=N/A speed=18.3x    frame= 5415 fps=438 q=-0.0 size=N/A time=00:03:45.85 bitrate=N/A speed=18.3x    frame= 5681 fps=441 q=-0.0 size=N/A time=00:03:56.94 bitrate=N/A speed=18.4x    frame= 5930 fps=442 q=-0.0 size=N/A time=00:04:07.33 bitrate=N/A speed=18.4x    frame= 6175 fps=444 q=-0.0 size=N/A time=00:04:17.54 bitrate=N/A speed=18.5x    frame= 6425 fps=445 q=-0.0 size=N/A time=00:04:27.97 bitrate=N/A speed=18.6x    frame= 6714 fps=449 q=-0.0 size=N/A time=00:04:40.02 bitrate=N/A speed=18.7x    frame= 6974 fps=451 q=-0.0 size=N/A time=00:04:50.87 bitrate=N/A speed=18.8x    frame= 7260 fps=454 q=-0.0 size=N/A time=00:05:02.80 bitrate=N/A speed=  19x    frame= 7514 fps=455 q=-0.0 size=N/A time=00:05:13.39 bitrate=N/A speed=  19x    frame= 7792 fps=458 q=-0.0 size=N/A time=00:05:24.99 bitrate=N/A speed=19.1x    frame= 8055 fps=460 q=-0.0 size=N/A time=00:05:35.96 bitrate=N/A speed=19.2x    frame= 8300 fps=460 q=-0.0 size=N/A time=00:05:46.17 bitrate=N/A speed=19.2x    frame= 8583 fps=462 q=-0.0 size=N/A time=00:05:57.98 bitrate=N/A speed=19.3x    frame= 8873 fps=465 q=-0.0 size=N/A time=00:06:10.07 bitrate=N/A speed=19.4x    frame= 9162 fps=468 q=-0.0 size=N/A time=00:06:22.13 bitrate=N/A speed=19.5x    frame= 9431 fps=469 q=-0.0 size=N/A time=00:06:33.35 bitrate=N/A speed=19.6x    frame= 9726 fps=472 q=-0.0 size=N/A time=00:06:45.65 bitrate=N/A speed=19.7x    frame=10020 fps=474 q=-0.0 size=N/A time=00:06:57.91 bitrate=N/A speed=19.8x    frame=10299 fps=475 q=-0.0 size=N/A time=00:07:09.55 bitrate=N/A speed=19.8x    frame=10579 fps=477 q=-0.0 size=N/A time=00:07:21.23 bitrate=N/A speed=19.9x    frame=10802 fps=476 q=-0.0 size=N/A time=00:07:30.53 bitrate=N/A speed=19.8x    frame=11056 fps=476 q=-0.0 size=N/A time=00:07:41.12 bitrate=N/A speed=19.9x    frame=11341 fps=478 q=-0.0 size=N/A time=00:07:53.01 bitrate=N/A speed=19.9x    frame=11616 fps=479 q=-0.0 size=N/A time=00:08:04.48 bitrate=N/A speed=  20x    frame=11888 fps=480 q=-0.0 size=N/A time=00:08:15.82 bitrate=N/A speed=  20x    frame=12158 fps=481 q=-0.0 size=N/A time=00:08:27.08 bitrate=N/A speed=20.1x    frame=12435 fps=482 q=-0.0 size=N/A time=00:08:38.64 bitrate=N/A speed=20.1x    frame=12717 fps=484 q=-0.0 size=N/A time=00:08:50.40 bitrate=N/A speed=20.2x    frame=12994 fps=484 q=-0.0 size=N/A time=00:09:01.95 bitrate=N/A speed=20.2x    frame=13267 fps=485 q=-0.0 size=N/A time=00:09:13.34 bitrate=N/A speed=20.2x    frame=13544 fps=486 q=-0.0 size=N/A time=00:09:24.89 bitrate=N/A speed=20.3x    frame=13814 fps=487 q=-0.0 size=N/A time=00:09:36.15 bitrate=N/A speed=20.3x    frame=14073 fps=487 q=-0.0 size=N/A time=00:09:46.96 bitrate=N/A speed=20.3x    frame=14334 fps=487 q=-0.0 size=N/A time=00:09:57.84 bitrate=N/A speed=20.3x    frame=14562 fps=487 q=-0.0 size=N/A time=00:10:07.35 bitrate=N/A speed=20.3x    frame=14856 fps=488 q=-0.0 size=N/A time=00:10:19.61 bitrate=N/A speed=20.4x    frame=15144 fps=489 q=-0.0 size=N/A time=00:10:31.63 bitrate=N/A speed=20.4x    frame=15416 fps=490 q=-0.0 size=N/A time=00:10:42.97 bitrate=N/A speed=20.4x    frame=15714 fps=491 q=-0.0 size=N/A time=00:10:55.44 bitrate=N/A speed=20.5x    frame=15974 fps=492 q=-0.0 size=N/A time=00:11:06.24 bitrate=N/A speed=20.5x    frame=16248 fps=492 q=-0.0 size=N/A time=00:11:17.67 bitrate=N/A speed=20.5x    frame=16532 fps=493 q=-0.0 size=N/A time=00:11:29.52 bitrate=N/A speed=20.6x    frame=16793 fps=493 q=-0.0 size=N/A time=00:11:40.40 bitrate=N/A speed=20.6x    frame=17050 fps=493 q=-0.0 size=N/A time=00:11:51.12 bitrate=N/A speed=20.6x    frame=17294 fps=493 q=-0.0 size=N/A time=00:12:01.30 bitrate=N/A speed=20.6x    frame=17559 fps=493 q=-0.0 size=N/A time=00:12:12.35 bitrate=N/A speed=20.6x    frame=17851 fps=494 q=-0.0 size=N/A time=00:12:24.53 bitrate=N/A speed=20.6x    frame=18132 fps=495 q=-0.0 size=N/A time=00:12:36.25 bitrate=N/A speed=20.7x    frame=18437 fps=496 q=-0.0 size=N/A time=00:12:48.97 bitrate=N/A speed=20.7x    frame=18725 fps=497 q=-0.0 size=N/A time=00:13:00.98 bitrate=N/A speed=20.7x    frame=19011 fps=498 q=-0.0 size=N/A time=00:13:12.91 bitrate=N/A speed=20.8x    frame=19297 fps=499 q=-0.0 size=N/A time=00:13:24.84 bitrate=N/A speed=20.8x    frame=19575 fps=499 q=-0.0 size=N/A time=00:13:36.44 bitrate=N/A speed=20.8x    frame=19860 fps=500 q=-0.0 size=N/A time=00:13:48.32 bitrate=N/A speed=20.9x    frame=20149 fps=501 q=-0.0 size=N/A time=00:14:00.38 bitrate=N/A speed=20.9x    frame=20432 fps=501 q=-0.0 size=N/A time=00:14:12.18 bitrate=N/A speed=20.9x    frame=20700 fps=502 q=-0.0 size=N/A time=00:14:23.36 bitrate=N/A speed=20.9x    frame=20982 fps=502 q=-0.0 size=N/A time=00:14:35.12 bitrate=N/A speed=20.9x    frame=21262 fps=503 q=-0.0 size=N/A time=00:14:46.80 bitrate=N/A speed=  21x    frame=21543 fps=503 q=-0.0 size=N/A time=00:14:58.52 bitrate=N/A speed=  21x    frame=21850 fps=504 q=-0.0 size=N/A time=00:15:11.32 bitrate=N/A speed=  21x    frame=22141 fps=505 q=-0.0 size=N/A time=00:15:23.46 bitrate=N/A speed=21.1x    frame=22420 fps=505 q=-0.0 size=N/A time=00:15:35.10 bitrate=N/A speed=21.1x    frame=22691 fps=505 q=-0.0 size=N/A time=00:15:46.40 bitrate=N/A speed=21.1x    frame=22954 fps=506 q=-0.0 size=N/A time=00:15:57.37 bitrate=N/A speed=21.1x    frame=23237 fps=506 q=-0.0 size=N/A time=00:16:09.17 bitrate=N/A speed=21.1x    frame=23530 fps=507 q=-0.0 size=N/A time=00:16:21.39 bitrate=N/A speed=21.1x    frame=23811 fps=507 q=-0.0 size=N/A time=00:16:33.11 bitrate=N/A speed=21.2x    frame=24107 fps=508 q=-0.0 size=N/A time=00:16:45.46 bitrate=N/A speed=21.2x    frame=24403 fps=509 q=-0.0 size=N/A time=00:16:57.80 bitrate=N/A speed=21.2x    frame=24676 fps=509 q=-0.0 size=N/A time=00:17:09.19 bitrate=N/A speed=21.2x    frame=24958 fps=509 q=-0.0 size=N/A time=00:17:20.95 bitrate=N/A speed=21.2x    frame=25227 fps=509 q=-0.0 size=N/A time=00:17:32.17 bitrate=N/A speed=21.2x    frame=25510 fps=510 q=-0.0 size=N/A time=00:17:43.97 bitrate=N/A speed=21.3x    frame=25768 fps=510 q=-0.0 size=N/A time=00:17:54.74 bitrate=N/A speed=21.3x    frame=26003 fps=509 q=-0.0 size=N/A time=00:18:04.54 bitrate=N/A speed=21.2x    frame=26251 fps=509 q=-0.0 size=N/A time=00:18:14.88 bitrate=N/A speed=21.2x    frame=26496 fps=508 q=-0.0 size=N/A time=00:18:25.10 bitrate=N/A speed=21.2x    frame=26750 fps=508 q=-0.0 size=N/A time=00:18:35.69 bitrate=N/A speed=21.2x    frame=27001 fps=508 q=-0.0 size=N/A time=00:18:46.16 bitrate=N/A speed=21.2x    frame=27268 fps=508 q=-0.0 size=N/A time=00:18:57.30 bitrate=N/A speed=21.2x    frame=27541 fps=508 q=-0.0 size=N/A time=00:19:08.68 bitrate=N/A speed=21.2x    frame=27813 fps=509 q=-0.0 size=N/A time=00:19:20.03 bitrate=N/A speed=21.2x    frame=28092 fps=509 q=-0.0 size=N/A time=00:19:31.67 bitrate=N/A speed=21.2x    frame=28370 fps=509 q=-0.0 size=N/A time=00:19:43.26 bitrate=N/A speed=21.2x    frame=28639 fps=509 q=-0.0 size=N/A time=00:19:54.48 bitrate=N/A speed=21.2x    frame=28924 fps=510 q=-0.0 size=N/A time=00:20:06.37 bitrate=N/A speed=21.3x    frame=29196 fps=510 q=-0.0 size=N/A time=00:20:17.71 bitrate=N/A speed=21.3x    frame=29484 fps=510 q=-0.0 size=N/A time=00:20:29.72 bitrate=N/A speed=21.3x    frame=29768 fps=511 q=-0.0 size=N/A time=00:20:41.57 bitrate=N/A speed=21.3x    frame=30058 fps=511 q=-0.0 size=N/A time=00:20:53.66 bitrate=N/A speed=21.3x    frame=30334 fps=511 q=-0.0 size=N/A time=00:21:05.18 bitrate=N/A speed=21.3x    frame=30588 fps=511 q=-0.0 size=N/A time=00:21:15.77 bitrate=N/A speed=21.3x    frame=30868 fps=511 q=-0.0 size=N/A time=00:21:27.45 bitrate=N/A speed=21.3x    frame=31083 fps=511 q=-0.0 size=N/A time=00:21:36.42 bitrate=N/A speed=21.3x    frame=31358 fps=511 q=-0.0 size=N/A time=00:21:47.88 bitrate=N/A speed=21.3x    frame=31615 fps=511 q=-0.0 size=N/A time=00:21:58.60 bitrate=N/A speed=21.3x    frame=31904 fps=511 q=-0.0 size=N/A time=00:22:10.66 bitrate=N/A speed=21.3x    frame=32157 fps=511 q=-0.0 size=N/A time=00:22:21.21 bitrate=N/A speed=21.3x    frame=32384 fps=510 q=-0.0 size=N/A time=00:22:30.68 bitrate=N/A speed=21.3x    frame=32630 fps=510 q=-0.0 size=N/A time=00:22:40.94 bitrate=N/A speed=21.3x    frame=32861 fps=510 q=-0.0 size=N/A time=00:22:50.57 bitrate=N/A speed=21.3x    frame=33131 fps=510 q=-0.0 size=N/A time=00:23:01.83 bitrate=N/A speed=21.3x    frame=33374 fps=509 q=-0.0 size=N/A time=00:23:11.97 bitrate=N/A speed=21.2x    frame=33605 fps=509 q=-0.0 size=N/A time=00:23:21.60 bitrate=N/A speed=21.2x    frame=33865 fps=509 q=-0.0 size=N/A time=00:23:32.45 bitrate=N/A speed=21.2x    frame=34085 fps=508 q=-0.0 size=N/A time=00:23:41.62 bitrate=N/A speed=21.2x    frame=34348 fps=508 q=-0.0 size=N/A time=00:23:52.59 bitrate=N/A speed=21.2x    [Parsed_ssim_10 @ 00000156972d1440] SSIM Y:0.994746 (22.795397) U:0.993580 (21.924592) V:0.994193 (22.360276) All:0.994460 (22.564652)
[out#0/null @ 00000156972846c0] video:14799KiB audio:269668KiB subtitle:0KiB other streams:0KiB global headers:0KiB muxing overhead: unknown
frame=34442 fps=508 q=-0.0 Lsize=N/A time=00:23:56.51 bitrate=N/A speed=21.2x    
